# xmcd
#
# Track frame offsets: 
#        182
#        14945
#        27875
#
# Disc length: 561 seconds
#
# Revision: 1
# Processed by: cddbd v1.5.2PL0 Copyright (c) Steve Scherf et al.
# Submitted via: ExactAudioCopy v1.3
#
DISCID=20022f03
DTITLE=the beach boys - I can hear the music
DYEAR=1996
DGENRE=Pop
TTITLE0=Kathy Troccoli - I Can Hear Music
TTITLE1=Kathy Troccoli - Little Deuce Coupe 
TTITLE2=Kathy Troccoli - Help Me  Rhonda
EXTD=maxis
EXTT0=
EXTT1=
EXTT2=
PLAYORDER=
